<svg width="36" height="36" viewBox="0 0 36 36" fill="none" xmlns="http://www.w3.org/2000/svg">
  <circle cx="18" cy="18" r="18" fill="url(#paint0_linear_1603_4455)"/>
  <path d="M16.3362 20.83H12.0802L11.2962 23H9.95223L13.4802 13.298H14.9502L18.4642 23H17.1202L16.3362 20.83ZM15.9722 19.794L14.2082 14.866L12.4442 19.794H15.9722ZM24.8878 17.974C25.2425 18.03 25.5645 18.1747 25.8538 18.408C26.1525 18.6413 26.3858 18.9307 26.5538 19.276C26.7312 19.6213 26.8198 19.99 26.8198 20.382C26.8198 20.8767 26.6938 21.3247 26.4418 21.726C26.1898 22.118 25.8212 22.4307 25.3358 22.664C24.8598 22.888 24.2952 23 23.6418 23H20.0018V13.242H23.5018C24.1645 13.242 24.7292 13.354 25.1958 13.578C25.6625 13.7927 26.0125 14.0867 26.2458 14.46C26.4792 14.8333 26.5958 15.2533 26.5958 15.72C26.5958 16.2987 26.4372 16.7793 26.1198 17.162C25.8118 17.5353 25.4012 17.806 24.8878 17.974ZM21.2758 17.456H23.4178C24.0152 17.456 24.4772 17.316 24.8038 17.036C25.1305 16.756 25.2938 16.3687 25.2938 15.874C25.2938 15.3793 25.1305 14.992 24.8038 14.712C24.4772 14.432 24.0058 14.292 23.3898 14.292H21.2758V17.456ZM23.5298 21.95C24.1645 21.95 24.6592 21.8007 25.0138 21.502C25.3685 21.2033 25.5458 20.788 25.5458 20.256C25.5458 19.7147 25.3592 19.29 24.9858 18.982C24.6125 18.6647 24.1132 18.506 23.4878 18.506H21.2758V21.95H23.5298Z" fill="white"/>
  <defs>
    <linearGradient id="paint0_linear_1603_4455" x1="-1.09151e-06" y1="-12" x2="25.875" y2="55.875" gradientUnits="userSpaceOnUse">
      <stop stop-color="#E0E500"/>
      <stop offset="1" stop-color="#DC04C6"/>
    </linearGradient>
  </defs>
</svg>
