<svg width="28" height="28" viewBox="0 0 28 28" fill="none" xmlns="http://www.w3.org/2000/svg">
  <path d="M15.543 13.9762L24.2475 5.29498C24.4195 5.09465 24.5094 4.83696 24.4992 4.57341C24.489 4.30986 24.3795 4.05985 24.1925 3.87335C24.0055 3.68685 23.7548 3.5776 23.4905 3.56742C23.2263 3.55724 22.9679 3.64688 22.767 3.81844L14.0625 12.4997L5.35802 3.80797C5.1603 3.61078 4.89214 3.5 4.61252 3.5C4.3329 3.5 4.06474 3.61078 3.86702 3.80797C3.6693 4.00516 3.55822 4.27261 3.55822 4.55148C3.55822 4.83035 3.6693 5.09779 3.86702 5.29498L12.582 13.9762L3.86702 22.6574C3.7571 22.7513 3.66783 22.8668 3.60481 22.9967C3.54178 23.1267 3.50637 23.2682 3.50078 23.4124C3.4952 23.5566 3.51956 23.7004 3.57235 23.8348C3.62514 23.9692 3.70521 24.0912 3.80754 24.1933C3.90987 24.2953 4.03224 24.3752 4.16698 24.4278C4.30172 24.4805 4.44592 24.5048 4.59053 24.4992C4.73513 24.4936 4.87702 24.4583 5.00729 24.3955C5.13756 24.3326 5.25339 24.2436 5.34752 24.134L14.0625 15.4527L22.767 24.134C22.9679 24.3055 23.2263 24.3952 23.4905 24.385C23.7548 24.3748 24.0055 24.2656 24.1925 24.0791C24.3795 23.8926 24.489 23.6425 24.4992 23.379C24.5094 23.1154 24.4195 22.8578 24.2475 22.6574L15.543 13.9762Z" fill="#9D3FE7"/>
</svg>
