<svg width="16" height="16" viewBox="0 0 16 16" fill="none" xmlns="http://www.w3.org/2000/svg">
  <path d="M7.58903 11.7845C7.6349 11.8511 7.69628 11.9056 7.76788 11.9432C7.83947 11.9809 7.91915 12.0005 8.00003 12.0005C8.08091 12.0005 8.16059 11.9809 8.23218 11.9432C8.30378 11.9056 8.36516 11.8511 8.41103 11.7845L12.911 5.2845C12.9631 5.20953 12.9937 5.12172 12.9993 5.0306C13.005 4.93949 12.9856 4.84856 12.9433 4.7677C12.9009 4.68683 12.8372 4.61912 12.759 4.57193C12.6809 4.52473 12.5913 4.49986 12.5 4.5H3.50003C3.40895 4.50038 3.3197 4.52557 3.24187 4.57288C3.16404 4.62019 3.10058 4.68782 3.05831 4.7685C3.01605 4.84917 2.99657 4.93985 3.00198 5.03077C3.0074 5.12168 3.03749 5.20941 3.08903 5.2845L7.58903 11.7845Z" fill="#4B3A5A"/>
</svg>
