<svg width="24" height="24" viewBox="0 0 24 24" fill="none" xmlns="http://www.w3.org/2000/svg">
  <path fill-rule="evenodd" clip-rule="evenodd" d="M16.53 4.8024L14.5032 4.8C12.228 4.8 10.7556 6.192 10.7556 8.3436V9.978H8.71922C8.54282 9.978 8.40002 10.11 8.40002 10.272V12.6396C8.40002 12.8016 8.54282 12.9324 8.71922 12.9324H10.7556V18.906C10.7556 19.0692 10.8996 19.2 11.0748 19.2H13.7328C13.9092 19.2 14.0508 19.068 14.0508 18.906V12.9324H16.434C16.6092 12.9324 16.752 12.8004 16.752 12.6396V10.272C16.7518 10.2329 16.7435 10.1943 16.7276 10.1585C16.7117 10.1228 16.6885 10.0907 16.6596 10.0644C16.5979 10.0083 16.5174 9.97749 16.434 9.978H14.052V8.592C14.052 7.926 14.2248 7.5876 15.1656 7.5876H16.5312C16.7064 7.5876 16.8492 7.4556 16.8492 7.2936V5.0964C16.8492 4.9344 16.7064 4.8036 16.5312 4.8024H16.53Z" fill="white"/>
</svg>
