<svg width="88" height="32" viewBox="0 0 88 32" fill="none" xmlns="http://www.w3.org/2000/svg">
  <circle cx="10.6997" cy="13.1997" r="9.19968" stroke="#1A141F" stroke-width="2"/>
  <path d="M31.8433 19.213H37.9117V21.6867H28.8994V3H31.8433V19.213Z" fill="#1A141F"/>
  <path d="M46.5453 21.9286C45.2025 21.9286 43.9888 21.615 42.9043 20.9876C41.8197 20.3423 40.9675 19.4461 40.3478 18.2989C39.728 17.1337 39.4181 15.7894 39.4181 14.2658C39.4181 12.7601 39.7366 11.4247 40.3736 10.2596C41.0106 9.09445 41.88 8.19821 42.9817 7.57084C44.0835 6.94347 45.3144 6.62978 46.6745 6.62978C48.0345 6.62978 49.2654 6.94347 50.3672 7.57084C51.469 8.19821 52.3384 9.09445 52.9753 10.2596C53.6123 11.4247 53.9308 12.7601 53.9308 14.2658C53.9308 15.7715 53.6037 17.1069 52.9495 18.272C52.2953 19.4371 51.4001 20.3423 50.2639 20.9876C49.1449 21.615 47.9054 21.9286 46.5453 21.9286ZM46.5453 19.2668C47.3028 19.2668 48.0087 19.0786 48.6628 18.7022C49.3343 18.3258 49.8765 17.7611 50.2897 17.0083C50.7029 16.2554 50.9095 15.3413 50.9095 14.2658C50.9095 13.1903 50.7115 12.2851 50.3155 11.5502C49.9196 10.7973 49.3945 10.2327 48.7403 9.85626C48.0861 9.47983 47.3803 9.29162 46.6228 9.29162C45.8653 9.29162 45.1595 9.47983 44.5053 9.85626C43.8683 10.2327 43.3605 10.7973 42.9817 11.5502C42.603 12.2851 42.4136 13.1903 42.4136 14.2658C42.4136 15.8611 42.801 17.0979 43.5757 17.9762C44.3676 18.8366 45.3575 19.2668 46.5453 19.2668Z" fill="#1A141F"/>
  <path d="M62.5737 6.62978C63.6755 6.62978 64.6482 6.86281 65.4917 7.32885C66.3525 7.77697 67.0239 8.34161 67.5059 9.02275V6.87177H70.4756V21.9286C70.4756 23.2909 70.2001 24.5009 69.6493 25.5584C69.0984 26.6339 68.2978 27.4764 67.2477 28.0858C66.2148 28.6953 64.9753 29 63.5292 29C61.601 29 60 28.525 58.726 27.575C57.4521 26.6429 56.729 25.3702 56.5569 23.757H59.4749C59.6987 24.5278 60.1721 25.1462 60.8952 25.6122C61.6355 26.0962 62.5134 26.3382 63.5292 26.3382C64.717 26.3382 65.6725 25.9617 66.3955 25.2089C67.1358 24.4561 67.5059 23.3626 67.5059 21.9286V19.455C67.0067 20.1541 66.3267 20.7456 65.4659 21.2296C64.6223 21.6956 63.6583 21.9286 62.5737 21.9286C61.3342 21.9286 60.198 21.606 59.165 20.9607C58.1493 20.2975 57.3402 19.3833 56.7376 18.2182C56.1523 17.0352 55.8597 15.6998 55.8597 14.212C55.8597 12.7242 56.1523 11.4068 56.7376 10.2596C57.3402 9.11238 58.1493 8.2251 59.165 7.59772C60.198 6.95243 61.3342 6.62978 62.5737 6.62978ZM67.5059 14.2658C67.5059 13.2441 67.2993 12.3568 66.8862 11.6039C66.4902 10.8511 65.9651 10.2775 65.311 9.88314C64.6568 9.4888 63.9509 9.29162 63.1935 9.29162C62.436 9.29162 61.7301 9.4888 61.0759 9.88314C60.4218 10.2596 59.8881 10.8242 59.4749 11.577C59.079 12.312 58.881 13.1903 58.881 14.212C58.881 15.2337 59.079 16.13 59.4749 16.9007C59.8881 17.6715 60.4218 18.263 61.0759 18.6753C61.7474 19.0696 62.4532 19.2668 63.1935 19.2668C63.9509 19.2668 64.6568 19.0696 65.311 18.6753C65.9651 18.2809 66.4902 17.7073 66.8862 16.9545C67.2993 16.1837 67.5059 15.2875 67.5059 14.2658Z" fill="#1A141F"/>
  <path d="M80.1146 21.9286C78.7718 21.9286 77.5581 21.615 76.4735 20.9876C75.389 20.3423 74.5368 19.4461 73.917 18.2989C73.2973 17.1337 72.9874 15.7894 72.9874 14.2658C72.9874 12.7601 73.3059 11.4247 73.9429 10.2596C74.5798 9.09445 75.4492 8.19821 76.551 7.57084C77.6528 6.94347 78.8837 6.62978 80.2437 6.62978C81.6038 6.62978 82.8347 6.94347 83.9365 7.57084C85.0382 8.19821 85.9076 9.09445 86.5446 10.2596C87.1816 11.4247 87.5001 12.7601 87.5001 14.2658C87.5001 15.7715 87.173 17.1069 86.5188 18.272C85.8646 19.4371 84.9694 20.3423 83.8332 20.9876C82.7142 21.615 81.4746 21.9286 80.1146 21.9286ZM80.1146 19.2668C80.8721 19.2668 81.5779 19.0786 82.2321 18.7022C82.9035 18.3258 83.4458 17.7611 83.859 17.0083C84.2722 16.2554 84.4787 15.3413 84.4787 14.2658C84.4787 13.1903 84.2808 12.2851 83.8848 11.5502C83.4889 10.7973 82.9638 10.2327 82.3096 9.85626C81.6554 9.47983 80.9496 9.29162 80.1921 9.29162C79.4346 9.29162 78.7288 9.47983 78.0746 9.85626C77.4376 10.2327 76.9298 10.7973 76.551 11.5502C76.1723 12.2851 75.9829 13.1903 75.9829 14.2658C75.9829 15.8611 76.3703 17.0979 77.145 17.9762C77.9369 18.8366 78.9268 19.2668 80.1146 19.2668Z" fill="#1A141F"/>
</svg>
