<svg width="32" height="32" viewBox="0 0 32 32" fill="none" xmlns="http://www.w3.org/2000/svg">
  <path d="M2 6.875C2 6.37772 2.18437 5.90081 2.51256 5.54918C2.84075 5.19754 3.28587 5 3.75 5H28.25C28.7141 5 29.1593 5.19754 29.4874 5.54918C29.8156 5.90081 30 6.37772 30 6.875C30 7.37228 29.8156 7.84919 29.4874 8.20082C29.1593 8.55246 28.7141 8.75 28.25 8.75H3.75C3.28587 8.75 2.84075 8.55246 2.51256 8.20082C2.18437 7.84919 2 7.37228 2 6.875ZM2 16.25C2 15.7527 2.18437 15.2758 2.51256 14.9242C2.84075 14.5725 3.28587 14.375 3.75 14.375H28.25C28.7141 14.375 29.1593 14.5725 29.4874 14.9242C29.8156 15.2758 30 15.7527 30 16.25C30 16.7473 29.8156 17.2242 29.4874 17.5758C29.1593 17.9275 28.7141 18.125 28.25 18.125H3.75C3.28587 18.125 2.84075 17.9275 2.51256 17.5758C2.18437 17.2242 2 16.7473 2 16.25ZM2 25.625C2 25.1277 2.18437 24.6508 2.51256 24.2992C2.84075 23.9475 3.28587 23.75 3.75 23.75H28.25C28.7141 23.75 29.1593 23.9475 29.4874 24.2992C29.8156 24.6508 30 25.1277 30 25.625C30 26.1223 29.8156 26.5992 29.4874 26.9508C29.1593 27.3025 28.7141 27.5 28.25 27.5H3.75C3.28587 27.5 2.84075 27.3025 2.51256 26.9508C2.18437 26.5992 2 26.1223 2 25.625Z" fill="#14191F"/>
</svg>
