<svg width="127" height="72" viewBox="0 0 127 72" fill="none" xmlns="http://www.w3.org/2000/svg">
  <circle cx="34.1997" cy="33.1997" r="9.19968" stroke="white" stroke-width="2"/>
  <path d="M55.3432 39.213H61.4117V41.6867H52.3994V23H55.3432V39.213Z" fill="white"/>
  <path d="M70.0453 41.9286C68.7025 41.9286 67.4888 41.615 66.4042 40.9876C65.3196 40.3423 64.4675 39.4461 63.8477 38.2989C63.228 37.1337 62.9181 35.7894 62.9181 34.2658C62.9181 32.7601 63.2366 31.4247 63.8735 30.2596C64.5105 29.0945 65.3799 28.1982 66.4817 27.5708C67.5835 26.9435 68.8144 26.6298 70.1744 26.6298C71.5344 26.6298 72.7653 26.9435 73.8671 27.5708C74.9689 28.1982 75.8383 29.0945 76.4753 30.2596C77.1122 31.4247 77.4307 32.7601 77.4307 34.2658C77.4307 35.7715 77.1036 37.1069 76.4494 38.272C75.7953 39.4371 74.9 40.3423 73.7638 40.9876C72.6448 41.615 71.4053 41.9286 70.0453 41.9286ZM70.0453 39.2668C70.8028 39.2668 71.5086 39.0786 72.1628 38.7022C72.8342 38.3258 73.3765 37.7611 73.7896 37.0083C74.2028 36.2554 74.4094 35.3413 74.4094 34.2658C74.4094 33.1903 74.2114 32.2851 73.8155 31.5502C73.4195 30.7973 72.8944 30.2327 72.2403 29.8563C71.5861 29.4798 70.8802 29.2916 70.1228 29.2916C69.3653 29.2916 68.6594 29.4798 68.0052 29.8563C67.3683 30.2327 66.8604 30.7973 66.4817 31.5502C66.1029 32.2851 65.9136 33.1903 65.9136 34.2658C65.9136 35.8611 66.3009 37.0979 67.0756 37.9762C67.8675 38.8366 68.8574 39.2668 70.0453 39.2668Z" fill="white"/>
  <path d="M86.0736 26.6298C87.1754 26.6298 88.1481 26.8628 88.9917 27.3289C89.8524 27.777 90.5238 28.3416 91.0059 29.0228V26.8718H93.9755V41.9286C93.9755 43.2909 93.7001 44.5009 93.1492 45.5584C92.5983 46.6339 91.7978 47.4764 90.7476 48.0858C89.7147 48.6953 88.4752 49 87.0291 49C85.101 49 83.4999 48.525 82.226 47.575C80.952 46.6429 80.229 45.3702 80.0568 43.757H82.9748C83.1986 44.5278 83.6721 45.1462 84.3951 45.6122C85.1354 46.0962 86.0134 46.3382 87.0291 46.3382C88.217 46.3382 89.1724 45.9617 89.8955 45.2089C90.6357 44.4561 91.0059 43.3626 91.0059 41.9286V39.455C90.5066 40.1541 89.8266 40.7456 88.9658 41.2296C88.1223 41.6956 87.1582 41.9286 86.0736 41.9286C84.8341 41.9286 83.6979 41.606 82.665 40.9607C81.6493 40.2975 80.8401 39.3833 80.2376 38.2182C79.6523 37.0352 79.3596 35.6998 79.3596 34.212C79.3596 32.7242 79.6523 31.4068 80.2376 30.2596C80.8401 29.1124 81.6493 28.2251 82.665 27.5977C83.6979 26.9524 84.8341 26.6298 86.0736 26.6298ZM91.0059 34.2658C91.0059 33.2441 90.7993 32.3568 90.3861 31.6039C89.9902 30.8511 89.4651 30.2775 88.8109 29.8831C88.1567 29.4888 87.4509 29.2916 86.6934 29.2916C85.9359 29.2916 85.2301 29.4888 84.5759 29.8831C83.9217 30.2596 83.388 30.8242 82.9748 31.577C82.5789 32.312 82.3809 33.1903 82.3809 34.212C82.3809 35.2337 82.5789 36.13 82.9748 36.9007C83.388 37.6715 83.9217 38.263 84.5759 38.6753C85.2473 39.0696 85.9531 39.2668 86.6934 39.2668C87.4509 39.2668 88.1567 39.0696 88.8109 38.6753C89.4651 38.2809 89.9902 37.7073 90.3861 36.9545C90.7993 36.1837 91.0059 35.2875 91.0059 34.2658Z" fill="white"/>
  <path d="M103.615 41.9286C102.272 41.9286 101.058 41.615 99.9735 40.9876C98.8889 40.3423 98.0367 39.4461 97.417 38.2989C96.7972 37.1337 96.4874 35.7894 96.4874 34.2658C96.4874 32.7601 96.8058 31.4247 97.4428 30.2596C98.0798 29.0945 98.9492 28.1982 100.051 27.5708C101.153 26.9435 102.384 26.6298 103.744 26.6298C105.104 26.6298 106.335 26.9435 107.436 27.5708C108.538 28.1982 109.408 29.0945 110.045 30.2596C110.682 31.4247 111 32.7601 111 34.2658C111 35.7715 110.673 37.1069 110.019 38.272C109.365 39.4371 108.469 40.3423 107.333 40.9876C106.214 41.615 104.975 41.9286 103.615 41.9286ZM103.615 39.2668C104.372 39.2668 105.078 39.0786 105.732 38.7022C106.403 38.3258 106.946 37.7611 107.359 37.0083C107.772 36.2554 107.979 35.3413 107.979 34.2658C107.979 33.1903 107.781 32.2851 107.385 31.5502C106.989 30.7973 106.464 30.2327 105.81 29.8563C105.155 29.4798 104.45 29.2916 103.692 29.2916C102.935 29.2916 102.229 29.4798 101.575 29.8563C100.938 30.2327 100.43 30.7973 100.051 31.5502C99.6722 32.2851 99.4828 33.1903 99.4828 34.2658C99.4828 35.8611 99.8702 37.0979 100.645 37.9762C101.437 38.8366 102.427 39.2668 103.615 39.2668Z" fill="white"/>
</svg>
