<svg width="24" height="24" viewBox="0 0 24 24" fill="none" xmlns="http://www.w3.org/2000/svg">
  <path d="M6.74984 4.58325H13.8748C14.2948 4.58325 14.6975 4.75007 14.9944 5.047C15.2914 5.34393 15.4582 5.74666 15.4582 6.16659V7.74992H13.8748V6.16659H6.74984V18.8333H13.8748V17.2499H15.4582V18.8333C15.4582 19.2532 15.2914 19.6559 14.9944 19.9528C14.6975 20.2498 14.2948 20.4166 13.8748 20.4166H6.74984C6.32991 20.4166 5.92718 20.2498 5.63025 19.9528C5.33332 19.6559 5.1665 19.2532 5.1665 18.8333V6.16659C5.1665 5.74666 5.33332 5.34393 5.63025 5.047C5.92718 4.75007 6.32991 4.58325 6.74984 4.58325Z" fill="#9D3FE7"/>
  <path d="M14.7379 15.3422L15.8542 16.4584L19.8125 12.5001L15.8542 8.54175L14.7379 9.658L16.7804 11.7084H9.125V13.2917H16.7804L14.7379 15.3422Z" fill="#9D3FE7"/>
</svg>
