<svg width="21" height="22" viewBox="0 0 21 22" fill="none" xmlns="http://www.w3.org/2000/svg">
  <path d="M17.5438 10.125H5.17126L6.30876 8.99624C6.47352 8.83148 6.56609 8.60801 6.56609 8.37499C6.56609 8.14198 6.47352 7.91851 6.30876 7.75374C6.14399 7.58898 5.92052 7.49641 5.68751 7.49641C5.45449 7.49641 5.23102 7.58898 5.06626 7.75374L2.44126 10.3787C2.35925 10.4601 2.29415 10.5569 2.24973 10.6635C2.20531 10.7701 2.18243 10.8845 2.18243 11C2.18243 11.1155 2.20531 11.2299 2.24973 11.3365C2.29415 11.4431 2.35925 11.5399 2.44126 11.6212L5.06626 14.2462C5.1476 14.3283 5.24438 14.3934 5.351 14.4378C5.45763 14.4822 5.572 14.5051 5.68751 14.5051C5.80302 14.5051 5.91739 14.4822 6.02401 14.4378C6.13064 14.3934 6.22742 14.3283 6.30876 14.2462C6.39077 14.1649 6.45586 14.0681 6.50029 13.9615C6.54471 13.8549 6.56758 13.7405 6.56758 13.625C6.56758 13.5095 6.54471 13.3951 6.50029 13.2885C6.45586 13.1819 6.39077 13.0851 6.30876 13.0037L5.17126 11.875H17.5438C17.7608 11.8644 17.9661 11.7734 18.1198 11.6198C18.2734 11.4661 18.3644 11.2608 18.375 11.0437V11C18.3753 10.7753 18.2891 10.5591 18.1344 10.3962C17.9796 10.2334 17.7682 10.1362 17.5438 10.125Z" fill="white"/>
  <path d="M17.867 15.375H9.25799C8.97743 15.375 8.75 15.7472 8.75 16.2063V16.2937C8.75 16.7528 8.97743 17.125 9.25799 17.125H17.867C18.1476 17.125 18.375 16.7528 18.375 16.2937V16.2063C18.375 15.7472 18.1476 15.375 17.867 15.375Z" fill="white"/>
  <path d="M17.867 4.875H9.25799C8.97743 4.875 8.75 5.24716 8.75 5.70625V5.79375C8.75 6.25284 8.97743 6.625 9.25799 6.625H17.867C18.1476 6.625 18.375 6.25284 18.375 5.79375V5.70625C18.375 5.24716 18.1476 4.875 17.867 4.875Z" fill="white"/>
</svg>
