<svg width="24" height="24" viewBox="0 0 24 24" fill="none" xmlns="http://www.w3.org/2000/svg">
  <path d="M12 13.1998C12.6628 13.1998 13.2 12.6625 13.2 11.9998C13.2 11.3371 12.6628 10.7998 12 10.7998C11.3373 10.7998 10.8 11.3371 10.8 11.9998C10.8 12.6625 11.3373 13.1998 12 13.1998Z" fill="#D9D1E0"/>
  <path d="M18.656 9.896H17.784C17.672 9.896 17.592 9.808 17.544 9.688C17.5154 9.64393 17.5002 9.59253 17.5002 9.54C17.5002 9.48747 17.5154 9.43607 17.544 9.392L18.192 8.8C18.319 8.67784 18.4199 8.53121 18.4887 8.36896C18.5574 8.20671 18.5926 8.03221 18.592 7.856C18.5918 7.67871 18.5564 7.50324 18.4877 7.33979C18.419 7.17635 18.3185 7.02821 18.192 6.904L17.12 5.808C16.9958 5.68295 16.8481 5.5837 16.6854 5.51597C16.5227 5.44825 16.3482 5.41338 16.172 5.41338C15.9958 5.41338 15.8213 5.44825 15.6586 5.51597C15.4959 5.5837 15.3482 5.68295 15.224 5.808L14.608 6.4C14.5591 6.43136 14.5021 6.44803 14.444 6.44803C14.3859 6.44803 14.3289 6.43136 14.28 6.4C14.2317 6.38199 14.1895 6.35061 14.1583 6.30954C14.1272 6.26846 14.1083 6.21938 14.104 6.168V5.344C14.1042 4.99437 13.9681 4.65845 13.7246 4.40752C13.4811 4.15659 13.1495 4.01041 12.8 4H11.248C10.8908 3.99999 10.5481 4.14134 10.2948 4.39316C10.0415 4.64498 9.89811 4.98682 9.896 5.344V6.216C9.896 6.328 9.808 6.408 9.688 6.456C9.64393 6.48458 9.59253 6.49979 9.54 6.49979C9.48747 6.49979 9.43607 6.48458 9.392 6.456L8.8 5.808C8.54663 5.55614 8.20523 5.41269 7.848 5.408C7.67193 5.40834 7.4977 5.44391 7.33558 5.51261C7.17346 5.5813 7.02672 5.68174 6.904 5.808L5.808 6.88C5.67929 7.00457 5.57695 7.15375 5.50705 7.31867C5.43716 7.48359 5.40114 7.66088 5.40114 7.84C5.40114 8.01912 5.43716 8.19641 5.50705 8.36133C5.57695 8.52625 5.67929 8.67543 5.808 8.8L6.4 9.392C6.43136 9.44095 6.44803 9.49787 6.44803 9.556C6.44803 9.61413 6.43136 9.67105 6.4 9.72C6.38199 9.76831 6.35061 9.8105 6.30954 9.84166C6.26846 9.87282 6.21938 9.89167 6.168 9.896H5.344C4.98755 9.896 4.6457 10.0376 4.39365 10.2896C4.1416 10.5417 4 10.8835 4 11.24V12.752C3.99999 13.1092 4.14134 13.4519 4.39316 13.7052C4.64498 13.9585 4.98682 14.1019 5.344 14.104H6.216C6.328 14.104 6.408 14.192 6.456 14.312C6.48458 14.3561 6.49979 14.4075 6.49979 14.46C6.49979 14.5125 6.48458 14.5639 6.456 14.608L5.808 15.2C5.55614 15.4534 5.41269 15.7948 5.408 16.152C5.40773 16.3294 5.44298 16.505 5.51168 16.6685C5.58038 16.832 5.68114 16.9801 5.808 17.104L6.88 18.192C7.00418 18.3171 7.15187 18.4163 7.31457 18.484C7.47727 18.5518 7.65177 18.5866 7.828 18.5866C8.00423 18.5866 8.17873 18.5518 8.34143 18.484C8.50413 18.4163 8.65182 18.3171 8.776 18.192L9.392 17.6C9.44095 17.5686 9.49787 17.552 9.556 17.552C9.61413 17.552 9.67105 17.5686 9.72 17.6C9.76831 17.618 9.8105 17.6494 9.84166 17.6905C9.87282 17.7315 9.89167 17.7806 9.896 17.832V18.704C9.90844 19.0521 10.0555 19.3817 10.3062 19.6235C10.5569 19.8652 10.8917 20.0002 11.24 20H12.752C13.1092 20 13.4519 19.8587 13.7052 19.6068C13.9585 19.355 14.1019 19.0132 14.104 18.656V17.784C14.104 17.672 14.192 17.592 14.312 17.544C14.3561 17.5154 14.4075 17.5002 14.46 17.5002C14.5125 17.5002 14.5639 17.5154 14.608 17.544L15.216 18.16C15.4694 18.4119 15.8108 18.5553 16.168 18.56C16.3441 18.5597 16.5183 18.5241 16.6804 18.4554C16.8425 18.3867 16.9893 18.2863 17.112 18.16L18.184 17.088C18.3091 16.9638 18.4083 16.8161 18.476 16.6534C18.5438 16.4907 18.5786 16.3162 18.5786 16.14C18.5786 15.9638 18.5438 15.7893 18.476 15.6266C18.4083 15.4639 18.3091 15.3162 18.184 15.192L17.6 14.608C17.5714 14.5639 17.5562 14.5125 17.5562 14.46C17.5562 14.4075 17.5714 14.3561 17.6 14.312C17.618 14.2637 17.6494 14.2215 17.6905 14.1903C17.7315 14.1592 17.7806 14.1403 17.832 14.136H18.704C19.0507 14.1236 19.3792 13.9777 19.6207 13.7287C19.8622 13.4797 19.9982 13.1469 20 12.8V11.248C20 10.8908 19.8587 10.5481 19.6068 10.2948C19.355 10.0415 19.0132 9.89811 18.656 9.896ZM12 14.8C11.4462 14.8 10.9049 14.6358 10.4444 14.3281C9.98395 14.0204 9.62506 13.5831 9.41314 13.0715C9.20121 12.5599 9.14576 11.9969 9.2538 11.4537C9.36184 10.9106 9.62851 10.4117 10.0201 10.0201C10.4117 9.62851 10.9106 9.36184 11.4537 9.2538C11.9969 9.14576 12.5599 9.20121 13.0715 9.41314C13.5831 9.62506 14.0204 9.98395 14.3281 10.4444C14.6358 10.9049 14.8 11.4462 14.8 12C14.8 12.7426 14.505 13.4548 13.9799 13.9799C13.4548 14.505 12.7426 14.8 12 14.8Z" fill="#D9D1E0"/>
</svg>
