<svg width="24" height="24" viewBox="0 0 24 24" fill="none" xmlns="http://www.w3.org/2000/svg">
  <path d="M12 4.28001C12.1768 4.28001 12.3464 4.20977 12.4714 4.08475C12.5964 3.95972 12.6667 3.79015 12.6667 3.61334V1.27334C12.6667 1.09653 12.5964 0.926961 12.4714 0.801936C12.3464 0.676912 12.1768 0.606674 12 0.606674C11.8232 0.606674 11.6536 0.676912 11.5286 0.801936C11.4036 0.926961 11.3333 1.09653 11.3333 1.27334V3.61334C11.3333 3.79015 11.4036 3.95972 11.5286 4.08475C11.6536 4.20977 11.8232 4.28001 12 4.28001Z" fill="#1A141F"/>
  <path d="M12 19.72C11.8232 19.72 11.6536 19.7902 11.5286 19.9153C11.4036 20.0403 11.3333 20.2099 11.3333 20.3867V22.7267C11.3333 22.9035 11.4036 23.073 11.5286 23.1981C11.6536 23.3231 11.8232 23.3933 12 23.3933C12.1768 23.3933 12.3464 23.3231 12.4714 23.1981C12.5964 23.073 12.6667 22.9035 12.6667 22.7267V20.3867C12.6667 20.2099 12.5964 20.0403 12.4714 19.9153C12.3464 19.7902 12.1768 19.72 12 19.72Z" fill="#1A141F"/>
  <path d="M5.6 6.54C5.72753 6.64922 5.89158 6.70629 6.05937 6.69981C6.22715 6.69333 6.38631 6.62377 6.50504 6.50504C6.62377 6.38631 6.69333 6.22715 6.69981 6.05937C6.70629 5.89158 6.64922 5.72753 6.54 5.6L4.88667 3.94667C4.75913 3.83745 4.59508 3.78038 4.4273 3.78686C4.25951 3.79334 4.10035 3.86289 3.98162 3.98162C3.86289 4.10035 3.79334 4.25951 3.78686 4.4273C3.78038 4.59508 3.83745 4.75913 3.94667 4.88667L5.6 6.54Z" fill="#1A141F"/>
  <path d="M18.4 17.46C18.2725 17.3508 18.1084 17.2937 17.9406 17.3002C17.7728 17.3067 17.6137 17.3762 17.495 17.495C17.3762 17.6137 17.3067 17.7728 17.3002 17.9406C17.2937 18.1084 17.3508 18.2725 17.46 18.4L19.1133 20.0533C19.2409 20.1626 19.4049 20.2196 19.5727 20.2131C19.7405 20.2067 19.8996 20.1371 20.0184 20.0184C20.1371 19.8996 20.2067 19.7405 20.2131 19.5727C20.2196 19.4049 20.1626 19.2409 20.0533 19.1133L18.4 17.46Z" fill="#1A141F"/>
  <path d="M4.28 12C4.28 11.8232 4.20976 11.6536 4.08474 11.5286C3.95971 11.4036 3.79014 11.3333 3.61333 11.3333H1.27333C1.09652 11.3333 0.926953 11.4036 0.801929 11.5286C0.676904 11.6536 0.606667 11.8232 0.606667 12C0.606667 12.1768 0.676904 12.3464 0.801929 12.4714C0.926953 12.5964 1.09652 12.6667 1.27333 12.6667H3.61333C3.79014 12.6667 3.95971 12.5964 4.08474 12.4714C4.20976 12.3464 4.28 12.1768 4.28 12Z" fill="#1A141F"/>
  <path d="M22.7267 11.3333H20.3867C20.2099 11.3333 20.0403 11.4036 19.9153 11.5286C19.7902 11.6536 19.72 11.8232 19.72 12C19.72 12.1768 19.7902 12.3464 19.9153 12.4714C20.0403 12.5964 20.2099 12.6667 20.3867 12.6667H22.7267C22.9035 12.6667 23.073 12.5964 23.1981 12.4714C23.3231 12.3464 23.3933 12.1768 23.3933 12C23.3933 11.8232 23.3231 11.6536 23.1981 11.5286C23.073 11.4036 22.9035 11.3333 22.7267 11.3333Z" fill="#1A141F"/>
  <path d="M5.6 17.46L3.94667 19.1133C3.83745 19.2409 3.78038 19.4049 3.78686 19.5727C3.79334 19.7405 3.86289 19.8996 3.98162 20.0184C4.10035 20.1371 4.25951 20.2067 4.4273 20.2131C4.59508 20.2196 4.75913 20.1626 4.88667 20.0533L6.54 18.4C6.64922 18.2725 6.70629 18.1084 6.69981 17.9406C6.69333 17.7728 6.62377 17.6137 6.50504 17.495C6.38631 17.3762 6.22715 17.3067 6.05937 17.3002C5.89158 17.2937 5.72753 17.3508 5.6 17.46Z" fill="#1A141F"/>
  <path d="M18.4 6.54L20.0533 4.88667C20.1626 4.75913 20.2196 4.59508 20.2131 4.4273C20.2067 4.25951 20.1371 4.10035 20.0184 3.98162C19.8996 3.86289 19.7405 3.79334 19.5727 3.78686C19.4049 3.78038 19.2409 3.83745 19.1133 3.94667L17.46 5.6C17.3508 5.72753 17.2937 5.89158 17.3002 6.05937C17.3067 6.22715 17.3762 6.38631 17.495 6.50504C17.6137 6.62377 17.7728 6.69333 17.9406 6.69981C18.1084 6.70629 18.2725 6.64922 18.4 6.54Z" fill="#1A141F"/>
  <path d="M12 18C15.3137 18 18 15.3137 18 12C18 8.68629 15.3137 6 12 6C8.68629 6 6 8.68629 6 12C6 15.3137 8.68629 18 12 18Z" fill="#1A141F"/>
</svg>
