<svg width="28" height="28" viewBox="0 0 28 28" fill="none" xmlns="http://www.w3.org/2000/svg">
  <circle opacity="0.2" cx="14" cy="14" r="14" fill="#D51A52"/>
  <g clip-path="url(#clip0_4556_9135)">
    <path fill-rule="evenodd" clip-rule="evenodd" d="M18.2135 9.79774C15.8847 7.46899 12.1115 7.46524 9.78724 9.78949C7.46149 12.116 7.46374 15.8877 9.79399 18.2165C12.1227 20.5452 15.8967 20.5482 18.2202 18.224C20.5452 15.8997 20.543 12.1265 18.2135 9.79774ZM15.2112 16.5132L13.9452 15.2472L12.6792 16.5132C12.1625 17.03 11.774 17.48 11.1575 16.8642C10.5425 16.2485 10.9902 15.86 11.5092 15.3425L12.7752 14.0772L11.5092 12.8112C10.9917 12.2945 10.5425 11.906 11.1575 11.2895C11.774 10.6745 12.1625 11.1237 12.6792 11.6412L13.9452 12.9057L15.2112 11.6412C15.7287 11.1245 16.115 10.6737 16.7315 11.2895C17.348 11.906 16.8987 12.2945 16.3812 12.8112L15.1152 14.0765L16.3812 15.3417C16.898 15.86 17.348 16.2485 16.7315 16.8642C16.1165 17.48 15.7287 17.03 15.2112 16.5132Z" fill="#D51A52"/>
  </g>
  <defs>
    <clipPath id="clip0_4556_9135">
      <rect width="12" height="12" fill="white" transform="translate(8 8)"/>
    </clipPath>
  </defs>
</svg>
