<svg width="28" height="28" viewBox="0 0 28 28" fill="none" xmlns="http://www.w3.org/2000/svg">
  <circle opacity="0.2" cx="14" cy="14" r="14" fill="#9D3FE7"/>
  <g clip-path="url(#clip0_4556_9104)">
    <path fill-rule="evenodd" clip-rule="evenodd" d="M8 14C8 10.6862 10.6862 8 14 8C17.3138 8 20 10.6862 20 14C20 17.3138 17.3138 20 14 20C10.6862 20 8 17.3138 8 14ZM14.6 11.6C14.6 11.4409 14.5368 11.2883 14.4243 11.1757C14.3117 11.0632 14.1591 11 14 11C13.8409 11 13.6883 11.0632 13.5757 11.1757C13.4632 11.2883 13.4 11.4409 13.4 11.6C13.4 11.7591 13.4632 11.9117 13.5757 12.0243C13.6883 12.1368 13.8409 12.2 14 12.2C14.1591 12.2 14.3117 12.1368 14.4243 12.0243C14.5368 11.9117 14.6 11.7591 14.6 11.6ZM14 17C14.1591 17 14.3117 16.9368 14.4243 16.8243C14.5368 16.7117 14.6 16.5591 14.6 16.4V14C14.6 13.8409 14.5368 13.6883 14.4243 13.5757C14.3117 13.4632 14.1591 13.4 14 13.4C13.8409 13.4 13.6883 13.4632 13.5757 13.5757C13.4632 13.6883 13.4 13.8409 13.4 14V16.4C13.4 16.5591 13.4632 16.7117 13.5757 16.8243C13.6883 16.9368 13.8409 17 14 17Z" fill="#9D3FE7"/>
  </g>
  <defs>
    <clipPath id="clip0_4556_9104">
      <rect width="12" height="12" fill="white" transform="translate(8 8)"/>
    </clipPath>
  </defs>
</svg>
