<svg width="24" height="24" viewBox="0 0 24 24" fill="none" xmlns="http://www.w3.org/2000/svg">
  <path fill-rule="evenodd" clip-rule="evenodd" d="M21.2832 6.5148C20.6198 6.80695 19.9171 6.99982 19.1976 7.0872C19.9548 6.63181 20.5216 5.91788 20.7936 5.0772C20.0779 5.49376 19.2981 5.78895 18.486 5.9508C17.9398 5.36558 17.2156 4.97722 16.426 4.84612C15.6363 4.71502 14.8254 4.84851 14.1195 5.22585C13.4135 5.60319 12.8521 6.20322 12.5224 6.93263C12.1927 7.66205 12.1132 8.47997 12.2964 9.2592C10.8531 9.18959 9.44064 8.81669 8.15108 8.16477C6.86152 7.51286 5.72378 6.59657 4.81198 5.4756C4.49638 6.0084 4.31998 6.6276 4.31998 7.302C4.31998 8.5644 4.96198 9.6744 5.93518 10.326C5.35877 10.3075 4.79513 10.1516 4.29118 9.8712V9.9168C4.29055 10.7558 4.58026 11.5691 5.11113 12.2187C5.642 12.8684 6.38131 13.3143 7.20358 13.4808C6.67099 13.6229 6.11331 13.6438 5.57158 13.542C5.80494 14.2637 6.25766 14.8946 6.86662 15.3467C7.47559 15.7989 8.21045 16.0497 8.96878 16.0644C8.21655 16.6555 7.35525 17.0926 6.43406 17.3508C5.51287 17.609 4.54984 17.6832 3.59998 17.5692C5.26521 18.6354 7.20144 19.2014 9.17878 19.2C15.8628 19.2 19.512 13.6668 19.512 8.8752C19.512 8.7216 19.512 8.5656 19.5012 8.4108C20.2146 7.89752 20.83 7.26019 21.318 6.5292L21.282 6.5148H21.2832Z" fill="white"/>
</svg>
