<svg width="24" height="24" viewBox="0 0 24 24" fill="none" xmlns="http://www.w3.org/2000/svg">
  <path fill-rule="evenodd" clip-rule="evenodd" d="M12.8832 17.9916C13.0902 17.9631 13.2827 17.8694 13.4328 17.724C13.6008 17.55 13.6008 17.226 13.6008 17.226C13.6008 17.226 13.5768 15.7044 14.2968 15.4812C15.0048 15.2592 15.9048 16.95 16.8648 17.6004C17.5968 18.0972 18.1488 17.9904 18.1488 17.9904L20.7168 17.9556C20.7168 17.9556 22.0632 17.8716 21.4272 16.8288C21.3792 16.746 21.0672 16.0584 19.5312 14.6484C17.9208 13.1784 18.1368 13.416 20.0712 10.8672C21.2472 9.3144 21.7272 8.3664 21.5712 7.9632C21.4392 7.584 20.5632 7.6776 20.5632 7.6776L17.682 7.7016C17.682 7.7016 17.466 7.6776 17.31 7.7736C17.154 7.8672 17.058 8.082 17.058 8.082C17.058 8.082 16.602 9.2904 15.99 10.3104C14.6916 12.4656 14.1756 12.5844 13.9716 12.4428C13.488 12.1332 13.6116 11.1948 13.6116 10.5216C13.6116 8.4348 13.9356 7.5576 12.9876 7.3332C12.6756 7.2612 12.4428 7.2156 11.6388 7.2024C10.6068 7.1904 9.73684 7.2108 9.24364 7.4484C8.91964 7.608 8.66764 7.9632 8.81164 7.9812C9.00364 8.0052 9.43564 8.0964 9.66364 8.406C9.96364 8.8056 9.95164 9.6984 9.95164 9.6984C9.95164 9.6984 10.1196 12.1584 9.55564 12.4656C9.15964 12.672 8.63164 12.2436 7.47964 10.2876C6.89164 9.2916 6.44764 8.1792 6.44764 8.1792C6.44764 8.1792 6.36364 7.9764 6.20764 7.8576C6.02404 7.728 5.76004 7.68 5.76004 7.68L3.01204 7.704C3.01204 7.704 2.60404 7.716 2.46124 7.8936C2.32924 8.0472 2.44924 8.3796 2.44924 8.3796C2.44924 8.3796 4.59724 13.3464 7.03324 15.8472C9.26524 18.1392 11.7984 17.9916 11.7984 17.9916H12.882H12.8832Z" fill="white"/>
</svg>
